<?xml version="1.0" encoding="UTF-8" standalone="no"?>
<svg xmlns="http://www.w3.org/2000/svg" width="700" height="700" viewBox="0 0 700 700">
  <style>
    .layer-bg { fill: #f9f9fb; stroke: #e5e5ea; stroke-width: 1.5; }
    .layer-title { font-family: -apple-system, BlinkMacSystemFont, "Segoe UI", Roboto, "Helvetica Neue", Arial, sans-serif; font-size: 10px; font-weight: 700; text-transform: uppercase; letter-spacing: 0.6px; }
    .node-text { font-family: -apple-system, BlinkMacSystemFont, "Segoe UI", Roboto, "Helvetica Neue", Arial, sans-serif; font-size: 11px; font-weight: 600; text-anchor: middle; dominant-baseline: middle; }
    .connector-line { stroke: #aeaeb2; stroke-width: 2; stroke-dasharray: 4 3; }
    .connector-arrow { fill: #aeaeb2; }
    .connector-text { font-family: -apple-system, BlinkMacSystemFont, "Segoe UI", Roboto, "Helvetica Neue", Arial, sans-serif; font-size: 9px; fill: #6e6e73; font-weight: 600; text-anchor: middle; }
  </style>
  <!-- Layer 0: USER / CLIENT -->
  <rect x="25" y="20" width="650" height="100" rx="12" class="layer-bg" stroke="#6e6e73" stroke-opacity="0.25" />
  <rect x="25" y="20" width="6" height="100" rx="3" fill="#6e6e73" />
  <text x="44" y="42" fill="#6e6e73" class="layer-title">USER / CLIENT</text>
  <rect x="274" y="65" width="120" height="30" rx="7" fill="rgba(110,110,115,0.15)" stroke="#6e6e73" stroke-width="1.5" />
  <circle cx="285" cy="80" r="3" fill="#6e6e73" />
  <text x="342" y="81" fill="#6e6e73" class="node-text">Web Browser / API…</text>
  <!-- Connector Layer 0 -> 1 -->
  <line x1="350" y1="120" x2="350" y2="153" class="connector-line" />
  <polygon points="346,153 354,153 350,160" class="connector-arrow" />
  <text x="350" y="144" class="connector-text">HTTP</text>
  <!-- Layer 1: API / PRESENTATION LAYER -->
  <rect x="25" y="160" width="650" height="100" rx="12" class="layer-bg" stroke="#0071e3" stroke-opacity="0.25" />
  <rect x="25" y="160" width="6" height="100" rx="3" fill="#0071e3" />
  <text x="44" y="182" fill="#0071e3" class="layer-title">API / PRESENTATION LAYER</text>
  <rect x="24" y="205" width="80" height="30" rx="7" fill="rgba(0,113,227,0.15)" stroke="#0071e3" stroke-width="1.5" />
  <circle cx="35" cy="220" r="3" fill="#0071e3" />
  <text x="72" y="221" fill="#0071e3" class="node-text">About</text>
  <rect x="149" y="205" width="80" height="30" rx="7" fill="rgba(0,113,227,0.15)" stroke="#0071e3" stroke-width="1.5" />
  <circle cx="160" cy="220" r="3" fill="#0071e3" />
  <text x="197" y="221" fill="#0071e3" class="node-text">Contact</text>
  <rect x="274" y="205" width="80" height="30" rx="7" fill="rgba(0,113,227,0.15)" stroke="#0071e3" stroke-width="1.5" />
  <circle cx="285" cy="220" r="3" fill="#0071e3" />
  <text x="322" y="221" fill="#0071e3" class="node-text">_Default</text>
  <rect x="399" y="205" width="80" height="30" rx="7" fill="rgba(0,113,227,0.15)" stroke="#0071e3" stroke-width="1.5" />
  <circle cx="410" cy="220" r="3" fill="#0071e3" />
  <text x="447" y="221" fill="#0071e3" class="node-text">SignUp</text>
  <rect x="524" y="205" width="80" height="30" rx="7" fill="rgba(0,113,227,0.15)" stroke="#0071e3" stroke-width="1.5" />
  <circle cx="535" cy="220" r="3" fill="#0071e3" />
  <text x="572" y="221" fill="#0071e3" class="node-text">ThankYou</text>
  <!-- Connector Layer 1 -> 2 -->
  <line x1="350" y1="260" x2="350" y2="293" class="connector-line" />
  <polygon points="346,293 354,293 350,300" class="connector-arrow" />
  <text x="350" y="284" class="connector-text">calls</text>
  <!-- Layer 2: BUSINESS LOGIC / SERVICE LAYER -->
  <rect x="25" y="300" width="650" height="100" rx="12" class="layer-bg" stroke="#30d158" stroke-opacity="0.25" />
  <rect x="25" y="300" width="6" height="100" rx="3" fill="#30d158" />
  <text x="44" y="322" fill="#30d158" class="layer-title">BUSINESS LOGIC / SERVICE LAYER</text>
  <rect x="274" y="345" width="115" height="30" rx="7" fill="rgba(48,209,88,0.15)" stroke="#30d158" stroke-width="1.5" />
  <circle cx="285" cy="360" r="3" fill="#30d158" />
  <text x="340" y="361" fill="#30d158" class="node-text">MessageHelper</text>
  <!-- Connector Layer 2 -> 3 -->
  <line x1="350" y1="400" x2="350" y2="433" class="connector-line" />
  <polygon points="346,433 354,433 350,440" class="connector-arrow" />
  <text x="350" y="424" class="connector-text">data ops</text>
  <!-- Layer 3: DATA ACCESS / REPOSITORY LAYER -->
  <rect x="25" y="440" width="650" height="100" rx="12" class="layer-bg" stroke="#ff9f0a" stroke-opacity="0.25" />
  <rect x="25" y="440" width="6" height="100" rx="3" fill="#ff9f0a" />
  <text x="44" y="462" fill="#ff9f0a" class="layer-title">DATA ACCESS / REPOSITORY LAYER</text>
  <rect x="274" y="485" width="120" height="30" rx="7" fill="rgba(255,159,10,0.15)" stroke="#ff9f0a" stroke-width="1.5" />
  <circle cx="285" cy="500" r="3" fill="#ff9f0a" />
  <text x="342" y="501" fill="#ff9f0a" class="node-text">ProductLaunchCont…</text>
  <!-- Connector Layer 3 -> 4 -->
  <line x1="350" y1="540" x2="350" y2="573" class="connector-line" />
  <polygon points="346,573 354,573 350,580" class="connector-arrow" />
  <text x="350" y="564" class="connector-text">SQL/ORM</text>
  <!-- Layer 4: DATABASE -->
  <rect x="25" y="580" width="650" height="100" rx="12" class="layer-bg" stroke="#bf5af2" stroke-opacity="0.25" />
  <rect x="25" y="580" width="6" height="100" rx="3" fill="#bf5af2" />
  <text x="44" y="602" fill="#bf5af2" class="layer-title">DATABASE</text>
  <rect x="140" y="625" width="80" height="30" rx="7" fill="rgba(191,90,242,0.15)" stroke="#bf5af2" stroke-width="1.5" />
  <circle cx="151" cy="640" r="3" fill="#bf5af2" />
  <text x="188" y="641" fill="#bf5af2" class="node-text">Country</text>
  <rect x="274" y="625" width="80" height="30" rx="7" fill="rgba(191,90,242,0.15)" stroke="#bf5af2" stroke-width="1.5" />
  <circle cx="285" cy="640" r="3" fill="#bf5af2" />
  <text x="322" y="641" fill="#bf5af2" class="node-text">Role</text>
  <rect x="408" y="625" width="80" height="30" rx="7" fill="rgba(191,90,242,0.15)" stroke="#bf5af2" stroke-width="1.5" />
  <circle cx="419" cy="640" r="3" fill="#bf5af2" />
  <text x="456" y="641" fill="#bf5af2" class="node-text">Prospect</text>
</svg>